# xmcd CD database file
#
# Track frame offsets:
#	150
#	18577
#	42497
#	64140
#	82237
#	99127
#	124740
#	147412
#	165127
#	199952
#	220837
#	235292
#
# Disc length: 3455 seconds
#
# Revision: 1
# Processed by: cddbd v1.4PL0 Copyright (c) Steve Scherf et al.
# Submitted via: CDex 1.51
#
DISCID=a80d7d0c
DTITLE=Willisohn Christian The New Band - Heart Broken Man
DYEAR=1900
DGENRE=Other
TTITLE0=A Girl Like You
TTITLE1=Heart Broken Man
TTITLE2=Congo Square
TTITLE3=Raven
TTITLE4=New York City
TTITLE5=Funeral
TTITLE6=Unauthentic Blues
TTITLE7=Macho Man
TTITLE8=Drown In My Own Tears
TTITLE9=On The Bayou
TTITLE10=Little Voodoo Baby
TTITLE11=The Man In Your Life
EXTD=
EXTT0=
EXTT1=
EXTT2=
EXTT3=
EXTT4=
EXTT5=
EXTT6=
EXTT7=
EXTT8=
EXTT9=
EXTT10=
EXTT11=
PLAYORDER=
